<?xml version="1.0" encoding="UTF-8"?>
<svg xmlns="http://www.w3.org/2000/svg" version="1.1" xmlns:xlink="http://www.w3.org/1999/xlink" viewBox="0 0 841.89 595.28">
  <defs>
    <style>
      .cls-1 {
        fill: url(#Naamloos_verloop_3-102);
      }

      .cls-1, .cls-2, .cls-3, .cls-4, .cls-5, .cls-6, .cls-7, .cls-8, .cls-9, .cls-10, .cls-11, .cls-12, .cls-13, .cls-14, .cls-15, .cls-16, .cls-17, .cls-18, .cls-19, .cls-20, .cls-21, .cls-22, .cls-23, .cls-24, .cls-25, .cls-26, .cls-27, .cls-28, .cls-29, .cls-30, .cls-31, .cls-32, .cls-33, .cls-34, .cls-35, .cls-36, .cls-37, .cls-38, .cls-39, .cls-40, .cls-41, .cls-42, .cls-43, .cls-44, .cls-45, .cls-46, .cls-47, .cls-48, .cls-49, .cls-50, .cls-51, .cls-52, .cls-53, .cls-54, .cls-55, .cls-56, .cls-57, .cls-58, .cls-59, .cls-60, .cls-61, .cls-62, .cls-63, .cls-64, .cls-65, .cls-66, .cls-67, .cls-68, .cls-69, .cls-70, .cls-71, .cls-72, .cls-73, .cls-74, .cls-75, .cls-76, .cls-77, .cls-78, .cls-79, .cls-80, .cls-81, .cls-82, .cls-83, .cls-84, .cls-85, .cls-86, .cls-87, .cls-88, .cls-89, .cls-90, .cls-91, .cls-92, .cls-93, .cls-94, .cls-95, .cls-96, .cls-97, .cls-98, .cls-99, .cls-100, .cls-101, .cls-102, .cls-103, .cls-104, .cls-105, .cls-106, .cls-107, .cls-108, .cls-109, .cls-110, .cls-111, .cls-112 {
        stroke-width: 0px;
      }

      .cls-1, .cls-2, .cls-3, .cls-4, .cls-5, .cls-6, .cls-7, .cls-8, .cls-9, .cls-10, .cls-11, .cls-12, .cls-13, .cls-14, .cls-15, .cls-16, .cls-17, .cls-18, .cls-19, .cls-20, .cls-21, .cls-22, .cls-23, .cls-24, .cls-25, .cls-26, .cls-27, .cls-28, .cls-29, .cls-30, .cls-31, .cls-32, .cls-33, .cls-34, .cls-35, .cls-36, .cls-37, .cls-38, .cls-39, .cls-40, .cls-41, .cls-42, .cls-43, .cls-44, .cls-45, .cls-46, .cls-47, .cls-48, .cls-49, .cls-50, .cls-51, .cls-52, .cls-53, .cls-54, .cls-55, .cls-56, .cls-57, .cls-58, .cls-59, .cls-61, .cls-62, .cls-63, .cls-64, .cls-65, .cls-66, .cls-67, .cls-68, .cls-69, .cls-70, .cls-71, .cls-72, .cls-73, .cls-74, .cls-75, .cls-76, .cls-77, .cls-78, .cls-79, .cls-80, .cls-81, .cls-82, .cls-83, .cls-84, .cls-85, .cls-86, .cls-87, .cls-88, .cls-89, .cls-90, .cls-91, .cls-92, .cls-93, .cls-94, .cls-95, .cls-96, .cls-97, .cls-98, .cls-99, .cls-100, .cls-101, .cls-102, .cls-103, .cls-104, .cls-105, .cls-106, .cls-107, .cls-108, .cls-109, .cls-110, .cls-111, .cls-112 {
        mix-blend-mode: multiply;
        opacity: .64;
      }

      .cls-2 {
        fill: url(#Naamloos_verloop_3-51);
      }

      .cls-3 {
        fill: url(#Naamloos_verloop_3-56);
      }

      .cls-4 {
        fill: url(#Naamloos_verloop_3-55);
      }

      .cls-5 {
        fill: url(#Naamloos_verloop_3-3);
      }

      .cls-6 {
        fill: url(#Naamloos_verloop_3-89);
      }

      .cls-7 {
        fill: url(#Naamloos_verloop_3-100);
      }

      .cls-8 {
        fill: url(#Naamloos_verloop_3-74);
      }

      .cls-9 {
        fill: url(#Naamloos_verloop_3-87);
      }

      .cls-10 {
        fill: url(#Naamloos_verloop_3-4);
      }

      .cls-11 {
        fill: url(#Naamloos_verloop_3-69);
      }

      .cls-12 {
        fill: url(#Naamloos_verloop_3-33);
      }

      .cls-13 {
        fill: url(#Naamloos_verloop_3-16);
      }

      .cls-14 {
        fill: url(#Naamloos_verloop_3-64);
      }

      .cls-15 {
        fill: url(#Naamloos_verloop_3-53);
      }

      .cls-16 {
        fill: url(#Naamloos_verloop_3-63);
      }

      .cls-17 {
        fill: url(#Naamloos_verloop_3-45);
      }

      .cls-18 {
        fill: url(#Naamloos_verloop_3-23);
      }

      .cls-19 {
        fill: url(#Naamloos_verloop_3-52);
      }

      .cls-20 {
        fill: url(#Naamloos_verloop_3-29);
      }

      .cls-21 {
        fill: url(#Naamloos_verloop_3-42);
      }

      .cls-22 {
        fill: url(#Naamloos_verloop_3-57);
      }

      .cls-23 {
        fill: url(#Naamloos_verloop_3-54);
      }

      .cls-24 {
        fill: url(#Naamloos_verloop_3-66);
      }

      .cls-25 {
        fill: url(#Naamloos_verloop_3-20);
      }

      .cls-26 {
        fill: url(#Naamloos_verloop_3-14);
      }

      .cls-27 {
        fill: url(#Naamloos_verloop_3-34);
      }

      .cls-28 {
        fill: url(#Naamloos_verloop_3-101);
      }

      .cls-113 {
        isolation: isolate;
      }

      .cls-29 {
        fill: url(#Naamloos_verloop_3-81);
      }

      .cls-30 {
        fill: url(#Naamloos_verloop_3-13);
      }

      .cls-31 {
        fill: url(#Naamloos_verloop_3-2);
      }

      .cls-32 {
        fill: url(#Naamloos_verloop_3-109);
      }

      .cls-33 {
        fill: url(#Naamloos_verloop_3-68);
      }

      .cls-34 {
        fill: url(#Naamloos_verloop_3-37);
      }

      .cls-35 {
        fill: url(#Naamloos_verloop_3-47);
      }

      .cls-36 {
        fill: url(#Naamloos_verloop_3-96);
      }

      .cls-37 {
        fill: url(#Naamloos_verloop_3-105);
      }

      .cls-38 {
        fill: url(#Naamloos_verloop_3-82);
      }

      .cls-39 {
        fill: url(#Naamloos_verloop_3-24);
      }

      .cls-40 {
        fill: url(#Naamloos_verloop_3-17);
      }

      .cls-41 {
        fill: url(#Naamloos_verloop_3-92);
      }

      .cls-42 {
        fill: url(#Naamloos_verloop_3-83);
      }

      .cls-43 {
        fill: url(#Naamloos_verloop_3-58);
      }

      .cls-44 {
        fill: url(#Naamloos_verloop_3-27);
      }

      .cls-45 {
        fill: url(#Naamloos_verloop_3-67);
      }

      .cls-46 {
        fill: url(#Naamloos_verloop_3-103);
      }

      .cls-47 {
        fill: url(#Naamloos_verloop_3-107);
      }

      .cls-48 {
        fill: url(#Naamloos_verloop_3-36);
      }

      .cls-49 {
        fill: url(#Naamloos_verloop_3-30);
      }

      .cls-50 {
        fill: url(#Naamloos_verloop_3-40);
      }

      .cls-51 {
        fill: url(#Naamloos_verloop_3-106);
      }

      .cls-52 {
        fill: url(#Naamloos_verloop_3-9);
      }

      .cls-53 {
        fill: url(#Naamloos_verloop_3-65);
      }

      .cls-54 {
        fill: url(#Naamloos_verloop_3-104);
      }

      .cls-55 {
        fill: url(#Naamloos_verloop_3-72);
      }

      .cls-56 {
        fill: url(#Naamloos_verloop_3-98);
      }

      .cls-57 {
        fill: url(#Naamloos_verloop_3-41);
      }

      .cls-58 {
        fill: url(#Naamloos_verloop_3-44);
      }

      .cls-59 {
        fill: url(#Naamloos_verloop_3-48);
      }

      .cls-60, .cls-114, .cls-115, .cls-116 {
        fill: #362255;
      }

      .cls-61 {
        fill: url(#Naamloos_verloop_3-61);
      }

      .cls-62 {
        fill: url(#Naamloos_verloop_3-46);
      }

      .cls-63 {
        fill: url(#Naamloos_verloop_3-84);
      }

      .cls-64 {
        fill: url(#Naamloos_verloop_3-79);
      }

      .cls-65 {
        fill: url(#Naamloos_verloop_3-111);
      }

      .cls-66 {
        fill: url(#Naamloos_verloop_3-26);
      }

      .cls-67 {
        fill: url(#Naamloos_verloop_3-8);
      }

      .cls-68 {
        fill: url(#Naamloos_verloop_3-19);
      }

      .cls-69 {
        fill: url(#Naamloos_verloop_3-7);
      }

      .cls-70 {
        fill: url(#Naamloos_verloop_3-35);
      }

      .cls-71 {
        fill: url(#Naamloos_verloop_3-15);
      }

      .cls-72 {
        fill: url(#Naamloos_verloop_3-80);
      }

      .cls-73 {
        fill: url(#Naamloos_verloop_3-90);
      }

      .cls-74 {
        fill: url(#Naamloos_verloop_3-11);
      }

      .cls-75 {
        fill: url(#Naamloos_verloop_3-85);
      }

      .cls-76 {
        fill: url(#Naamloos_verloop_3-91);
      }

      .cls-77 {
        fill: url(#Naamloos_verloop_3-78);
      }

      .cls-78 {
        fill: url(#Naamloos_verloop_3-25);
      }

      .cls-79 {
        fill: url(#Naamloos_verloop_3);
      }

      .cls-80 {
        fill: url(#Naamloos_verloop_3-70);
      }

      .cls-81 {
        fill: url(#Naamloos_verloop_3-73);
      }

      .cls-82 {
        fill: url(#Naamloos_verloop_3-31);
      }

      .cls-83 {
        fill: url(#Naamloos_verloop_3-49);
      }

      .cls-84 {
        fill: url(#Naamloos_verloop_3-94);
      }

      .cls-85 {
        fill: url(#Naamloos_verloop_3-59);
      }

      .cls-86 {
        fill: url(#Naamloos_verloop_3-99);
      }

      .cls-87 {
        fill: url(#Naamloos_verloop_3-76);
      }

      .cls-88 {
        fill: url(#Naamloos_verloop_3-6);
      }

      .cls-114 {
        font-size: 250px;
      }

      .cls-114, .cls-115, .cls-116 {
        font-family: Origram, Origram;
      }

      .cls-89 {
        fill: url(#Naamloos_verloop_3-75);
      }

      .cls-90 {
        fill: url(#Naamloos_verloop_3-97);
      }

      .cls-91 {
        fill: url(#Naamloos_verloop_3-77);
      }

      .cls-92 {
        fill: url(#Naamloos_verloop_3-28);
      }

      .cls-93 {
        fill: url(#Naamloos_verloop_3-43);
      }

      .cls-115 {
        font-size: 143.34px;
      }

      .cls-94 {
        fill: url(#Naamloos_verloop_3-18);
      }

      .cls-95 {
        fill: url(#Naamloos_verloop_3-5);
      }

      .cls-96 {
        fill: url(#Naamloos_verloop_3-93);
      }

      .cls-97 {
        fill: url(#Naamloos_verloop_3-38);
      }

      .cls-98 {
        fill: url(#Naamloos_verloop_3-86);
      }

      .cls-99 {
        fill: url(#Naamloos_verloop_3-108);
      }

      .cls-100 {
        fill: url(#Naamloos_verloop_3-10);
      }

      .cls-101 {
        fill: url(#Naamloos_verloop_3-60);
      }

      .cls-102 {
        fill: url(#Naamloos_verloop_3-95);
      }

      .cls-103 {
        fill: url(#Naamloos_verloop_3-22);
      }

      .cls-104 {
        fill: url(#Naamloos_verloop_3-62);
      }

      .cls-105 {
        fill: url(#Naamloos_verloop_3-71);
      }

      .cls-116 {
        font-size: 70.41px;
      }

      .cls-106 {
        fill: url(#Naamloos_verloop_3-32);
      }

      .cls-107 {
        fill: url(#Naamloos_verloop_3-50);
      }

      .cls-108 {
        fill: url(#Naamloos_verloop_3-12);
      }

      .cls-109 {
        fill: url(#Naamloos_verloop_3-110);
      }

      .cls-110 {
        fill: url(#Naamloos_verloop_3-39);
      }

      .cls-111 {
        fill: url(#Naamloos_verloop_3-88);
      }

      .cls-112 {
        fill: url(#Naamloos_verloop_3-21);
      }
    </style>
    <linearGradient id="Naamloos_verloop_3" data-name="Naamloos verloop 3" x1="-1370.26" y1="232.03" x2="-1370.26" y2="133.51" gradientUnits="userSpaceOnUse">
      <stop offset="0" stop-color="#fff" stop-opacity="0"/>
      <stop offset="1" stop-color="#1d1d1b"/>
    </linearGradient>
    <linearGradient id="Naamloos_verloop_3-2" data-name="Naamloos verloop 3" x1="-1602.42" y1="-491.75" x2="-1602.42" y2="-592.21" gradientTransform="translate(-1543.09 1822.23) rotate(90.34) scale(.94 .21)" xlink:href="#Naamloos_verloop_3"/>
    <linearGradient id="Naamloos_verloop_3-3" data-name="Naamloos verloop 3" x1="-1412.42" y1="638.61" x2="-1412.42" y2="540.79" gradientTransform="translate(45.02 186.68) rotate(-.17) scale(.94 .21)" xlink:href="#Naamloos_verloop_3"/>
    <linearGradient id="Naamloos_verloop_3-4" data-name="Naamloos verloop 3" x1="-1420.42" y1="-419.29" x2="-1420.42" y2="-616.62" gradientTransform="translate(-1381.63 1665.37) rotate(94.46) scale(.94 .21)" xlink:href="#Naamloos_verloop_3"/>
    <linearGradient id="Naamloos_verloop_3-5" data-name="Naamloos verloop 3" x1="-1213.37" y1="139.95" x2="-1213.37" y2="-79.5" gradientTransform="translate(19.8 211.82) rotate(-.37) scale(.94 .21)" xlink:href="#Naamloos_verloop_3"/>
    <linearGradient id="Naamloos_verloop_3-6" data-name="Naamloos verloop 3" x1="-1689.07" y1="637.8" x2="-1689.07" y2="428.47" gradientTransform="translate(-2709.2 445.84) rotate(178.41) scale(.94 .21)" xlink:href="#Naamloos_verloop_3"/>
    <linearGradient id="Naamloos_verloop_3-7" data-name="Naamloos verloop 3" x1="-1480.14" y1="138.98" x2="-1422.3" y2="99.92" xlink:href="#Naamloos_verloop_3"/>
    <linearGradient id="Naamloos_verloop_3-8" data-name="Naamloos verloop 3" x1="-1628.87" y1="487.6" x2="-1628.87" y2="463.31" xlink:href="#Naamloos_verloop_3"/>
    <linearGradient id="Naamloos_verloop_3-9" data-name="Naamloos verloop 3" x1="-1595.93" y1="487.77" x2="-1595.93" y2="463.35" xlink:href="#Naamloos_verloop_3"/>
    <linearGradient id="Naamloos_verloop_3-10" data-name="Naamloos verloop 3" x1="-1545.56" y1="486.88" x2="-1545.56" y2="463.34" xlink:href="#Naamloos_verloop_3"/>
    <linearGradient id="Naamloos_verloop_3-11" data-name="Naamloos verloop 3" x1="-1512.54" y1="485.86" x2="-1512.54" y2="462.32" xlink:href="#Naamloos_verloop_3"/>
    <linearGradient id="Naamloos_verloop_3-12" data-name="Naamloos verloop 3" x1="-1395.35" y1="515.28" x2="-1395.35" y2="490.52" gradientTransform="translate(-1543.09 1822.23) rotate(90.34) scale(.94 .21)" xlink:href="#Naamloos_verloop_3"/>
    <linearGradient id="Naamloos_verloop_3-13" data-name="Naamloos verloop 3" x1="-1796.39" y1="-37.78" x2="-1796.39" y2="-58.95" gradientTransform="translate(-1571.39 -1183.44) rotate(-89.92) scale(.94 .21)" xlink:href="#Naamloos_verloop_3"/>
    <linearGradient id="Naamloos_verloop_3-14" data-name="Naamloos verloop 3" x1="-1373.49" y1="982.28" x2="-1373.49" y2="961.11" gradientTransform="translate(-1276.5 1748.4) rotate(90.03) scale(.94 .21)" xlink:href="#Naamloos_verloop_3"/>
    <linearGradient id="Naamloos_verloop_3-15" data-name="Naamloos verloop 3" x1="-1573.47" y1="1481.63" x2="-1573.47" y2="1450.56" gradientTransform="translate(45.02 186.68) rotate(-.17) scale(.94 .21)" xlink:href="#Naamloos_verloop_3"/>
    <linearGradient id="Naamloos_verloop_3-16" data-name="Naamloos verloop 3" x1="-1286.38" y1="204.87" x2="-1286.38" y2="96.75" gradientTransform="translate(-1381.63 1665.37) rotate(94.46) scale(.94 .21)" xlink:href="#Naamloos_verloop_3"/>
    <linearGradient id="Naamloos_verloop_3-17" data-name="Naamloos verloop 3" x1="-1229.54" y1="241.73" x2="-1229.54" y2="184.3" gradientTransform="translate(-1381.63 1665.37) rotate(94.46) scale(.94 .21)" xlink:href="#Naamloos_verloop_3"/>
    <linearGradient id="Naamloos_verloop_3-18" data-name="Naamloos verloop 3" x1="-1291.38" y1="-97.11" x2="-1291.38" y2="-146.2" gradientTransform="translate(-1381.63 1665.37) rotate(94.46) scale(.94 .21)" xlink:href="#Naamloos_verloop_3"/>
    <linearGradient id="Naamloos_verloop_3-19" data-name="Naamloos verloop 3" x1="-1519.37" y1="503.63" x2="-1519.37" y2="444.91" gradientTransform="translate(202.76 377.72) rotate(.39) scale(.94 .21)" xlink:href="#Naamloos_verloop_3"/>
    <linearGradient id="Naamloos_verloop_3-20" data-name="Naamloos verloop 3" x1="-1472.19" y1="665.97" x2="-1472.19" y2="609.25" gradientTransform="translate(202.76 377.72) rotate(.39) scale(.94 .21)" xlink:href="#Naamloos_verloop_3"/>
    <linearGradient id="Naamloos_verloop_3-21" data-name="Naamloos verloop 3" x1="-1224.13" y1="540.37" x2="-1224.13" y2="477.68" gradientTransform="translate(-1381.63 1665.37) rotate(94.46) scale(.94 .21)" xlink:href="#Naamloos_verloop_3"/>
    <linearGradient id="Naamloos_verloop_3-22" data-name="Naamloos verloop 3" x1="-1492.86" y1="1224.38" x2="-1492.86" y2="1154.67" gradientTransform="translate(19.8 211.82) rotate(-.37) scale(.94 .21)" xlink:href="#Naamloos_verloop_3"/>
    <linearGradient id="Naamloos_verloop_3-23" data-name="Naamloos verloop 3" x1="-1457.77" y1="1220.98" x2="-1457.77" y2="1155.99" gradientTransform="translate(19.8 211.82) rotate(-.37) scale(.94 .21)" xlink:href="#Naamloos_verloop_3"/>
    <linearGradient id="Naamloos_verloop_3-24" data-name="Naamloos verloop 3" x1="-1403.06" y1="1373.53" x2="-1403.06" y2="1311.5" gradientTransform="translate(19.8 211.82) rotate(-.37) scale(.94 .21)" xlink:href="#Naamloos_verloop_3"/>
    <linearGradient id="Naamloos_verloop_3-25" data-name="Naamloos verloop 3" x1="-1503.59" y1="744.19" x2="-1503.59" y2="680.93" gradientTransform="translate(-811.7 -847.41) rotate(-66.12) scale(.94 .21)" xlink:href="#Naamloos_verloop_3"/>
    <linearGradient id="Naamloos_verloop_3-26" data-name="Naamloos verloop 3" x1="-1405.45" y1="-359.57" x2="-1405.45" y2="-426.06" gradientTransform="translate(-2709.2 445.84) rotate(178.41) scale(.94 .21)" xlink:href="#Naamloos_verloop_3"/>
    <linearGradient id="Naamloos_verloop_3-27" data-name="Naamloos verloop 3" x1="-1440.71" y1="-360.95" x2="-1440.71" y2="-433.24" gradientTransform="translate(-2709.2 445.84) rotate(178.41) scale(.94 .21)" xlink:href="#Naamloos_verloop_3"/>
    <linearGradient id="Naamloos_verloop_3-28" data-name="Naamloos verloop 3" x1="-1392.83" y1="534.88" x2="-1392.83" y2="508.74" gradientTransform="translate(-1337.3 1788.76) rotate(85.19) scale(.94 .21)" xlink:href="#Naamloos_verloop_3"/>
    <linearGradient id="Naamloos_verloop_3-29" data-name="Naamloos verloop 3" x1="-1140.26" y1="476.58" x2="-1140.26" y2="464.64" xlink:href="#Naamloos_verloop_3"/>
    <linearGradient id="Naamloos_verloop_3-30" data-name="Naamloos verloop 3" x1="-1007.66" y1="476.24" x2="-1007.66" y2="464.3" xlink:href="#Naamloos_verloop_3"/>
    <linearGradient id="Naamloos_verloop_3-31" data-name="Naamloos verloop 3" x1="-1107.24" y1="465" x2="-1107.24" y2="453.06" xlink:href="#Naamloos_verloop_3"/>
    <linearGradient id="Naamloos_verloop_3-32" data-name="Naamloos verloop 3" x1="-1052.09" y1="468.32" x2="-1052.09" y2="456.38" xlink:href="#Naamloos_verloop_3"/>
    <linearGradient id="Naamloos_verloop_3-33" data-name="Naamloos verloop 3" x1="-1107.24" y1="506.18" x2="-1107.24" y2="496.26" xlink:href="#Naamloos_verloop_3"/>
    <linearGradient id="Naamloos_verloop_3-34" data-name="Naamloos verloop 3" x1="-1007.83" y1="506.18" x2="-1007.83" y2="496.26" xlink:href="#Naamloos_verloop_3"/>
    <linearGradient id="Naamloos_verloop_3-35" data-name="Naamloos verloop 3" x1="-1051.79" y1="505.04" x2="-1051.79" y2="496.29" xlink:href="#Naamloos_verloop_3"/>
    <linearGradient id="Naamloos_verloop_3-36" data-name="Naamloos verloop 3" x1="-1062.52" y1="141.6" x2="-1062.52" y2="129.66" gradientTransform="translate(-2199.48 652.71) rotate(178.68)" xlink:href="#Naamloos_verloop_3"/>
    <linearGradient id="Naamloos_verloop_3-37" data-name="Naamloos verloop 3" x1="-1655.95" y1="464.66" x2="-1641.7" y2="455.03" xlink:href="#Naamloos_verloop_3"/>
    <linearGradient id="Naamloos_verloop_3-38" data-name="Naamloos verloop 3" x1="-486.23" y1="249.6" x2="-486.23" y2="193.11" xlink:href="#Naamloos_verloop_3"/>
    <linearGradient id="Naamloos_verloop_3-39" data-name="Naamloos verloop 3" x1="-1626.78" y1="-4810.89" x2="-1626.78" y2="-4868.49" gradientTransform="translate(-1543.09 1822.23) rotate(90.34) scale(.94 .21)" xlink:href="#Naamloos_verloop_3"/>
    <linearGradient id="Naamloos_verloop_3-40" data-name="Naamloos verloop 3" x1="-512.33" y1="545.35" x2="-512.33" y2="489.26" gradientTransform="translate(45.02 186.68) rotate(-.17) scale(.94 .21)" xlink:href="#Naamloos_verloop_3"/>
    <linearGradient id="Naamloos_verloop_3-41" data-name="Naamloos verloop 3" x1="-1516.83" y1="-4228.84" x2="-1516.83" y2="-4341.98" gradientTransform="translate(-1381.63 1665.37) rotate(94.46) scale(.94 .21)" xlink:href="#Naamloos_verloop_3"/>
    <linearGradient id="Naamloos_verloop_3-42" data-name="Naamloos verloop 3" x1="-386.85" y1="213.59" x2="-386.85" y2="87.77" gradientTransform="translate(19.8 211.82) rotate(-.37) scale(.94 .21)" xlink:href="#Naamloos_verloop_3"/>
    <linearGradient id="Naamloos_verloop_3-43" data-name="Naamloos verloop 3" x1="-2515.67" y1="523.01" x2="-2515.67" y2="402.99" gradientTransform="translate(-2709.2 445.84) rotate(178.41) scale(.94 .21)" xlink:href="#Naamloos_verloop_3"/>
    <linearGradient id="Naamloos_verloop_3-44" data-name="Naamloos verloop 3" x1="-549.23" y1="196.25" x2="-516.07" y2="173.85" xlink:href="#Naamloos_verloop_3"/>
    <linearGradient id="Naamloos_verloop_3-45" data-name="Naamloos verloop 3" x1="-634.5" y1="396.13" x2="-634.5" y2="382.2" xlink:href="#Naamloos_verloop_3"/>
    <linearGradient id="Naamloos_verloop_3-46" data-name="Naamloos verloop 3" x1="-615.62" y1="396.22" x2="-615.62" y2="382.23" xlink:href="#Naamloos_verloop_3"/>
    <linearGradient id="Naamloos_verloop_3-47" data-name="Naamloos verloop 3" x1="-586.74" y1="395.71" x2="-586.74" y2="382.22" xlink:href="#Naamloos_verloop_3"/>
    <linearGradient id="Naamloos_verloop_3-48" data-name="Naamloos verloop 3" x1="-567.8" y1="395.13" x2="-567.8" y2="381.63" xlink:href="#Naamloos_verloop_3"/>
    <linearGradient id="Naamloos_verloop_3-49" data-name="Naamloos verloop 3" x1="-1508.06" y1="-4233.52" x2="-1508.06" y2="-4247.71" gradientTransform="translate(-1543.09 1822.23) rotate(90.34) scale(.94 .21)" xlink:href="#Naamloos_verloop_3"/>
    <linearGradient id="Naamloos_verloop_3-50" data-name="Naamloos verloop 3" x1="-1688.59" y1="4587.68" x2="-1688.59" y2="4575.54" gradientTransform="translate(-1571.39 -1183.44) rotate(-89.92) scale(.94 .21)" xlink:href="#Naamloos_verloop_3"/>
    <linearGradient id="Naamloos_verloop_3-51" data-name="Naamloos verloop 3" x1="-1456.37" y1="-3443.26" x2="-1456.37" y2="-3455.4" gradientTransform="translate(-1276.5 1748.4) rotate(90.03) scale(.94 .21)" xlink:href="#Naamloos_verloop_3"/>
    <linearGradient id="Naamloos_verloop_3-52" data-name="Naamloos verloop 3" x1="-604.66" y1="1028.69" x2="-604.66" y2="1010.87" gradientTransform="translate(45.02 186.68) rotate(-.17) scale(.94 .21)" xlink:href="#Naamloos_verloop_3"/>
    <linearGradient id="Naamloos_verloop_3-53" data-name="Naamloos verloop 3" x1="-1439.98" y1="-3870.98" x2="-1439.98" y2="-3932.97" gradientTransform="translate(-1381.63 1665.37) rotate(94.46) scale(.94 .21)" xlink:href="#Naamloos_verloop_3"/>
    <linearGradient id="Naamloos_verloop_3-54" data-name="Naamloos verloop 3" x1="-1407.39" y1="-3849.85" x2="-1407.39" y2="-3882.77" gradientTransform="translate(-1381.63 1665.37) rotate(94.46) scale(.94 .21)" xlink:href="#Naamloos_verloop_3"/>
    <linearGradient id="Naamloos_verloop_3-55" data-name="Naamloos verloop 3" x1="-1442.84" y1="-4044.12" x2="-1442.84" y2="-4072.27" gradientTransform="translate(-1381.63 1665.37) rotate(94.46) scale(.94 .21)" xlink:href="#Naamloos_verloop_3"/>
    <linearGradient id="Naamloos_verloop_3-56" data-name="Naamloos verloop 3" x1="-645.34" y1="70.15" x2="-645.34" y2="36.48" gradientTransform="translate(202.76 377.72) rotate(.39) scale(.94 .21)" xlink:href="#Naamloos_verloop_3"/>
    <linearGradient id="Naamloos_verloop_3-57" data-name="Naamloos verloop 3" x1="-618.29" y1="163.22" x2="-618.29" y2="130.7" gradientTransform="translate(202.76 377.72) rotate(.39) scale(.94 .21)" xlink:href="#Naamloos_verloop_3"/>
    <linearGradient id="Naamloos_verloop_3-58" data-name="Naamloos verloop 3" x1="-1404.28" y1="-3678.62" x2="-1404.28" y2="-3714.56" gradientTransform="translate(-1381.63 1665.37) rotate(94.46) scale(.94 .21)" xlink:href="#Naamloos_verloop_3"/>
    <linearGradient id="Naamloos_verloop_3-59" data-name="Naamloos verloop 3" x1="-547.09" y1="835.34" x2="-547.09" y2="795.37" gradientTransform="translate(19.8 211.82) rotate(-.37) scale(.94 .21)" xlink:href="#Naamloos_verloop_3"/>
    <linearGradient id="Naamloos_verloop_3-60" data-name="Naamloos verloop 3" x1="-526.97" y1="833.39" x2="-526.97" y2="796.13" gradientTransform="translate(19.8 211.82) rotate(-.37) scale(.94 .21)" xlink:href="#Naamloos_verloop_3"/>
    <linearGradient id="Naamloos_verloop_3-61" data-name="Naamloos verloop 3" x1="-495.6" y1="920.86" x2="-495.6" y2="885.29" gradientTransform="translate(19.8 211.82) rotate(-.37) scale(.94 .21)" xlink:href="#Naamloos_verloop_3"/>
    <linearGradient id="Naamloos_verloop_3-62" data-name="Naamloos verloop 3" x1="-1048.85" y1="4149.33" x2="-1048.85" y2="4113.06" gradientTransform="translate(-811.7 -847.41) rotate(-66.12) scale(.94 .21)" xlink:href="#Naamloos_verloop_3"/>
    <linearGradient id="Naamloos_verloop_3-63" data-name="Naamloos verloop 3" x1="-2353.06" y1="-48.82" x2="-2353.06" y2="-86.95" gradientTransform="translate(-2709.2 445.84) rotate(178.41) scale(.94 .21)" xlink:href="#Naamloos_verloop_3"/>
    <linearGradient id="Naamloos_verloop_3-64" data-name="Naamloos verloop 3" x1="-2373.27" y1="-49.62" x2="-2373.27" y2="-91.06" gradientTransform="translate(-2709.2 445.84) rotate(178.41) scale(.94 .21)" xlink:href="#Naamloos_verloop_3"/>
    <linearGradient id="Naamloos_verloop_3-65" data-name="Naamloos verloop 3" x1="-1405.53" y1="-4067.01" x2="-1405.53" y2="-4082" gradientTransform="translate(-1337.3 1788.76) rotate(85.19) scale(.94 .21)" xlink:href="#Naamloos_verloop_3"/>
    <linearGradient id="Naamloos_verloop_3-66" data-name="Naamloos verloop 3" x1="-354.36" y1="389.81" x2="-354.36" y2="382.96" xlink:href="#Naamloos_verloop_3"/>
    <linearGradient id="Naamloos_verloop_3-67" data-name="Naamloos verloop 3" x1="-278.34" y1="389.61" x2="-278.34" y2="382.77" xlink:href="#Naamloos_verloop_3"/>
    <linearGradient id="Naamloos_verloop_3-68" data-name="Naamloos verloop 3" x1="-335.43" y1="383.17" x2="-335.43" y2="376.33" xlink:href="#Naamloos_verloop_3"/>
    <linearGradient id="Naamloos_verloop_3-69" data-name="Naamloos verloop 3" x1="-303.81" y1="385.07" x2="-303.81" y2="378.23" xlink:href="#Naamloos_verloop_3"/>
    <linearGradient id="Naamloos_verloop_3-70" data-name="Naamloos verloop 3" x1="-335.43" y1="406.78" x2="-335.43" y2="401.09" xlink:href="#Naamloos_verloop_3"/>
    <linearGradient id="Naamloos_verloop_3-71" data-name="Naamloos verloop 3" x1="-278.44" y1="406.78" x2="-278.44" y2="401.09" xlink:href="#Naamloos_verloop_3"/>
    <linearGradient id="Naamloos_verloop_3-72" data-name="Naamloos verloop 3" x1="-303.64" y1="406.13" x2="-303.64" y2="401.11" xlink:href="#Naamloos_verloop_3"/>
    <linearGradient id="Naamloos_verloop_3-73" data-name="Naamloos verloop 3" x1="-1850.41" y1="214.53" x2="-1850.41" y2="207.69" gradientTransform="translate(-2199.48 652.71) rotate(178.68)" xlink:href="#Naamloos_verloop_3"/>
    <linearGradient id="Naamloos_verloop_3-74" data-name="Naamloos verloop 3" x1="-650.03" y1="382.98" x2="-641.86" y2="377.46" xlink:href="#Naamloos_verloop_3"/>
    <linearGradient id="Naamloos_verloop_3-75" data-name="Naamloos verloop 3" x1="321.91" y1="254.3" x2="321.91" y2="226.55" xlink:href="#Naamloos_verloop_3"/>
    <linearGradient id="Naamloos_verloop_3-76" data-name="Naamloos verloop 3" x1="-1652.5" y1="-8731.06" x2="-1652.5" y2="-8759.36" gradientTransform="translate(-1543.09 1822.23) rotate(90.34) scale(.94 .21)" xlink:href="#Naamloos_verloop_3"/>
    <linearGradient id="Naamloos_verloop_3-77" data-name="Naamloos verloop 3" x1="319.48" y1="449.69" x2="319.48" y2="422.14" gradientTransform="translate(45.02 186.68) rotate(-.17) scale(.94 .21)" xlink:href="#Naamloos_verloop_3"/>
    <linearGradient id="Naamloos_verloop_3-78" data-name="Naamloos verloop 3" x1="-1607.33" y1="-7795.19" x2="-1607.33" y2="-7850.77" gradientTransform="translate(-1381.63 1665.37) rotate(94.46) scale(.94 .21)" xlink:href="#Naamloos_verloop_3"/>
    <linearGradient id="Naamloos_verloop_3-79" data-name="Naamloos verloop 3" x1="394.68" y1="235.5" x2="394.68" y2="173.69" gradientTransform="translate(19.8 211.82) rotate(-.37) scale(.94 .21)" xlink:href="#Naamloos_verloop_3"/>
    <linearGradient id="Naamloos_verloop_3-80" data-name="Naamloos verloop 3" x1="-3297.33" y1="452.33" x2="-3297.33" y2="393.38" gradientTransform="translate(-2709.2 445.84) rotate(178.41) scale(.94 .21)" xlink:href="#Naamloos_verloop_3"/>
    <linearGradient id="Naamloos_verloop_3-81" data-name="Naamloos verloop 3" x1="290.96" y1="228.09" x2="307.25" y2="217.09" xlink:href="#Naamloos_verloop_3"/>
    <linearGradient id="Naamloos_verloop_3-82" data-name="Naamloos verloop 3" x1="249.08" y1="326.27" x2="249.08" y2="319.43" xlink:href="#Naamloos_verloop_3"/>
    <linearGradient id="Naamloos_verloop_3-83" data-name="Naamloos verloop 3" x1="258.35" y1="326.32" x2="258.35" y2="319.44" xlink:href="#Naamloos_verloop_3"/>
    <linearGradient id="Naamloos_verloop_3-84" data-name="Naamloos verloop 3" x1="272.54" y1="326.07" x2="272.54" y2="319.44" xlink:href="#Naamloos_verloop_3"/>
    <linearGradient id="Naamloos_verloop_3-85" data-name="Naamloos verloop 3" x1="281.84" y1="325.78" x2="281.84" y2="319.15" xlink:href="#Naamloos_verloop_3"/>
    <linearGradient id="Naamloos_verloop_3-86" data-name="Naamloos verloop 3" x1="-1594.18" y1="-8447.45" x2="-1594.18" y2="-8454.42" gradientTransform="translate(-1543.09 1822.23) rotate(90.34) scale(.94 .21)" xlink:href="#Naamloos_verloop_3"/>
    <linearGradient id="Naamloos_verloop_3-87" data-name="Naamloos verloop 3" x1="-1606.82" y1="8717.46" x2="-1606.82" y2="8711.5" gradientTransform="translate(-1571.39 -1183.44) rotate(-89.92) scale(.94 .21)" xlink:href="#Naamloos_verloop_3"/>
    <linearGradient id="Naamloos_verloop_3-88" data-name="Naamloos verloop 3" x1="-1520.91" y1="-7436.39" x2="-1520.91" y2="-7442.35" gradientTransform="translate(-1276.5 1748.4) rotate(90.03) scale(.94 .21)" xlink:href="#Naamloos_verloop_3"/>
    <linearGradient id="Naamloos_verloop_3-89" data-name="Naamloos verloop 3" x1="274.12" y1="687.12" x2="274.12" y2="678.36" gradientTransform="translate(45.02 186.68) rotate(-.17) scale(.94 .21)" xlink:href="#Naamloos_verloop_3"/>
    <linearGradient id="Naamloos_verloop_3-90" data-name="Naamloos verloop 3" x1="-1569.57" y1="-7619.4" x2="-1569.57" y2="-7649.85" gradientTransform="translate(-1381.63 1665.37) rotate(94.46) scale(.94 .21)" xlink:href="#Naamloos_verloop_3"/>
    <linearGradient id="Naamloos_verloop_3-91" data-name="Naamloos verloop 3" x1="-1553.57" y1="-7609.02" x2="-1553.57" y2="-7625.2" gradientTransform="translate(-1381.63 1665.37) rotate(94.46) scale(.94 .21)" xlink:href="#Naamloos_verloop_3"/>
    <linearGradient id="Naamloos_verloop_3-92" data-name="Naamloos verloop 3" x1="-1570.98" y1="-7704.45" x2="-1570.98" y2="-7718.28" gradientTransform="translate(-1381.63 1665.37) rotate(94.46) scale(.94 .21)" xlink:href="#Naamloos_verloop_3"/>
    <linearGradient id="Naamloos_verloop_3-93" data-name="Naamloos verloop 3" x1="168.56" y1="-267.55" x2="168.56" y2="-284.09" gradientTransform="translate(202.76 377.72) rotate(.39) scale(.94 .21)" xlink:href="#Naamloos_verloop_3"/>
    <linearGradient id="Naamloos_verloop_3-94" data-name="Naamloos verloop 3" x1="181.85" y1="-221.83" x2="181.85" y2="-237.8" gradientTransform="translate(202.76 377.72) rotate(.39) scale(.94 .21)" xlink:href="#Naamloos_verloop_3"/>
    <linearGradient id="Naamloos_verloop_3-95" data-name="Naamloos verloop 3" x1="-1552.04" y1="-7524.91" x2="-1552.04" y2="-7542.57" gradientTransform="translate(-1381.63 1665.37) rotate(94.46) scale(.94 .21)" xlink:href="#Naamloos_verloop_3"/>
    <linearGradient id="Naamloos_verloop_3-96" data-name="Naamloos verloop 3" x1="315.96" y1="540.92" x2="315.96" y2="521.28" gradientTransform="translate(19.8 211.82) rotate(-.37) scale(.94 .21)" xlink:href="#Naamloos_verloop_3"/>
    <linearGradient id="Naamloos_verloop_3-97" data-name="Naamloos verloop 3" x1="325.85" y1="539.96" x2="325.85" y2="521.65" gradientTransform="translate(19.8 211.82) rotate(-.37) scale(.94 .21)" xlink:href="#Naamloos_verloop_3"/>
    <linearGradient id="Naamloos_verloop_3-98" data-name="Naamloos verloop 3" x1="341.26" y1="582.92" x2="341.26" y2="565.45" gradientTransform="translate(19.8 211.82) rotate(-.37) scale(.94 .21)" xlink:href="#Naamloos_verloop_3"/>
    <linearGradient id="Naamloos_verloop_3-99" data-name="Naamloos verloop 3" x1="-643.26" y1="7347.99" x2="-643.26" y2="7330.17" gradientTransform="translate(-811.7 -847.41) rotate(-66.12) scale(.94 .21)" xlink:href="#Naamloos_verloop_3"/>
    <linearGradient id="Naamloos_verloop_3-100" data-name="Naamloos verloop 3" x1="-3217.45" y1="171.44" x2="-3217.45" y2="152.71" gradientTransform="translate(-2709.2 445.84) rotate(178.41) scale(.94 .21)" xlink:href="#Naamloos_verloop_3"/>
    <linearGradient id="Naamloos_verloop_3-101" data-name="Naamloos verloop 3" x1="-3227.38" y1="171.05" x2="-3227.38" y2="150.69" gradientTransform="translate(-2709.2 445.84) rotate(178.41) scale(.94 .21)" xlink:href="#Naamloos_verloop_3"/>
    <linearGradient id="Naamloos_verloop_3-102" data-name="Naamloos verloop 3" x1="-1403.82" y1="-8180.24" x2="-1403.82" y2="-8187.6" gradientTransform="translate(-1337.3 1788.76) rotate(85.19) scale(.94 .21)" xlink:href="#Naamloos_verloop_3"/>
    <linearGradient id="Naamloos_verloop_3-103" data-name="Naamloos verloop 3" x1="386.69" y1="323.17" x2="386.69" y2="319.8" xlink:href="#Naamloos_verloop_3"/>
    <linearGradient id="Naamloos_verloop_3-104" data-name="Naamloos verloop 3" x1="424.03" y1="323.07" x2="424.03" y2="319.71" xlink:href="#Naamloos_verloop_3"/>
    <linearGradient id="Naamloos_verloop_3-105" data-name="Naamloos verloop 3" x1="395.99" y1="319.91" x2="395.99" y2="316.54" xlink:href="#Naamloos_verloop_3"/>
    <linearGradient id="Naamloos_verloop_3-106" data-name="Naamloos verloop 3" x1="411.52" y1="320.84" x2="411.52" y2="317.48" xlink:href="#Naamloos_verloop_3"/>
    <linearGradient id="Naamloos_verloop_3-107" data-name="Naamloos verloop 3" x1="395.99" y1="331.51" x2="395.99" y2="328.71" xlink:href="#Naamloos_verloop_3"/>
    <linearGradient id="Naamloos_verloop_3-108" data-name="Naamloos verloop 3" x1="423.98" y1="331.51" x2="423.98" y2="328.71" xlink:href="#Naamloos_verloop_3"/>
    <linearGradient id="Naamloos_verloop_3-109" data-name="Naamloos verloop 3" x1="411.6" y1="331.18" x2="411.6" y2="328.72" xlink:href="#Naamloos_verloop_3"/>
    <linearGradient id="Naamloos_verloop_3-110" data-name="Naamloos verloop 3" x1="-2592.94" y1="267.01" x2="-2592.94" y2="263.65" gradientTransform="translate(-2199.48 652.71) rotate(178.68)" xlink:href="#Naamloos_verloop_3"/>
    <linearGradient id="Naamloos_verloop_3-111" data-name="Naamloos verloop 3" x1="241.45" y1="319.81" x2="245.46" y2="317.1" xlink:href="#Naamloos_verloop_3"/>
  </defs>
  <g class="cls-113">
    <g id="Laag_1" data-name="Laag 1">
      <g>
        <path class="cls-60" d="M-1582.89,311.15v-118.86l132.46-132.46h39.03l84.56,84.56v127.14l-84.56,83.97h-127.14l82.2-82.2h42.58v-131.28l-169.13,169.12Z"/>
        <path class="cls-60" d="M-1250.98,206.57v167.01l-66.99-66.99V45.07h66.99v161.5ZM-1088.56,208.4v98.18l-65.61,65.61h-28.44l-63.78-63.78h90.38v-101.85h-94.97l63.77-63.78h33.03l65.61,65.61Z"/>
      </g>
      <polygon class="cls-79" points="-1326.82 232.55 -1413.44 232.55 -1413.7 141.96 -1326.95 144.37 -1326.82 232.55"/>
      <polygon class="cls-31" points="-1430.82 354.96 -1430.33 273.4 -1413.7 273.21 -1411.37 355.3 -1430.82 354.96"/>
      <polygon class="cls-5" points="-1251.11 316.19 -1299.64 325.23 -1317.92 306.34 -1251.01 307.55 -1251.11 316.19"/>
      <polygon class="cls-10" points="-1183.57 372.58 -1187.32 308.15 -1156.18 308.35 -1153.97 371.84 -1183.57 372.58"/>
      <polygon class="cls-95" points="-1088.8 248.74 -1156.04 243.65 -1155.77 206.68 -1089.07 209.09 -1088.8 248.74"/>
      <polygon class="cls-88" points="-1156.49 268.01 -1089.15 271.67 -1088.77 306.64 -1156.08 308.55 -1156.49 268.01"/>
      <polygon class="cls-69" points="-1452.81 179.47 -1483.69 92.19 -1449.63 59.43 -1415.52 142.17 -1452.81 179.47"/>
      <text class="cls-114" transform="translate(-1684.2 518.03) scale(.58)"><tspan x="0" y="0">Senbazuru</tspan></text>
      <polygon class="cls-67" points="-1618.16 487.72 -1639.51 487.72 -1639.58 465.39 -1618.2 465.99 -1618.16 487.72"/>
      <polygon class="cls-52" points="-1585.31 487.89 -1606.66 487.89 -1606.58 466.15 -1585.2 465.45 -1585.31 487.89"/>
      <polygon class="cls-100" points="-1534.89 487 -1556.24 487 -1556.15 465.36 -1534.88 466.04 -1534.89 487"/>
      <polygon class="cls-74" points="-1501.87 485.98 -1523.22 485.98 -1523.13 464.34 -1501.85 465.02 -1501.87 485.98"/>
      <polygon class="cls-108" points="-1643.8 517.89 -1643.68 497.79 -1639.58 497.75 -1639 517.98 -1643.8 517.89"/>
      <polygon class="cls-30" points="-1581.67 497.82 -1581.7 517.92 -1585.8 517.98 -1585.3 497.79 -1581.67 497.82"/>
      <polygon class="cls-26" points="-1482.81 465.2 -1482.8 445.09 -1478.7 445.03 -1479.18 465.22 -1482.81 465.2"/>
      <polygon class="cls-71" points="-1424.95 500.24 -1440.37 503.11 -1446.17 497.11 -1424.92 497.49 -1424.95 500.24"/>
      <polygon class="cls-13" points="-1331.34 465.38 -1319.92 445.15 -1309.51 445.21 -1310.34 465.38 -1331.34 465.38"/>
      <polygon class="cls-40" points="-1341.49 517.66 -1341.6 497.75 -1331.2 497.81 -1332.03 517.98 -1341.49 517.66"/>
      <polygon class="cls-94" points="-1267.45 464.91 -1265.85 453.38 -1257.46 445.31 -1257.91 464.81 -1267.45 464.91"/>
      <polygon class="cls-68" points="-1218.78 472.82 -1247.92 473.97 -1238.82 464.78 -1208.92 462.86 -1218.78 472.82"/>
      <polygon class="cls-25" points="-1173.56 498.04 -1183.26 508.6 -1195 497.53 -1173.39 497.7 -1173.56 498.04"/>
      <polygon class="cls-112" points="-1403.49 518.15 -1404.68 497.68 -1394.79 497.75 -1394.09 517.92 -1403.49 518.15"/>
      <polygon class="cls-103" points="-1373.39 478.81 -1394.75 477.19 -1394.66 465.45 -1373.47 466.21 -1373.39 478.81"/>
      <polygon class="cls-18" points="-1340.45 477.87 -1361.81 476.26 -1361.63 466.02 -1340.34 465.29 -1340.45 477.87"/>
      <polygon class="cls-39" points="-1288.62 509.66 -1301.39 506.38 -1310.07 497.79 -1288.75 498.21 -1288.62 509.66"/>
      <polygon class="cls-78" points="-1235.85 498.26 -1246.07 518.17 -1257.97 517.96 -1244.15 498.51 -1235.85 498.26"/>
      <polygon class="cls-66" points="-1394.89 484.93 -1373.5 486.09 -1373.38 497.2 -1394.76 497.81 -1394.89 484.93"/>
      <polygon class="cls-44" points="-1361.7 484.29 -1340.31 485.45 -1340.41 497.7 -1361.57 497.17 -1361.7 484.29"/>
      <polygon class="cls-92" points="-1557.51 496.43 -1560.24 481.98 -1556.16 481.57 -1553.6 500.51 -1557.51 496.43"/>
      <polygon class="cls-20" points="-1129.6 476.64 -1150.92 476.64 -1150.92 465.66 -1129.73 465.92 -1129.6 476.64"/>
      <polyline class="cls-49" points="-997 476.3 -1018.32 476.3 -1018.32 465.32 -997.13 465.58"/>
      <polygon class="cls-82" points="-1096.58 465.07 -1117.9 465.07 -1117.9 454.09 -1096.71 454.34 -1096.58 465.07"/>
      <polygon class="cls-106" points="-1041.43 468.38 -1062.75 468.38 -1062.75 457.41 -1041.56 457.66 -1041.43 468.38"/>
      <polygon class="cls-12" points="-1096.66 506.24 -1109.85 505.28 -1117.9 497.11 -1096.58 497.17 -1096.66 506.24"/>
      <polyline class="cls-27" points="-997.26 506.24 -1010.45 505.28 -1018.49 497.11 -997.17 497.17"/>
      <polygon class="cls-70" points="-1041.05 498.21 -1054.32 505.09 -1062.54 497.04 -1041.22 497.68 -1041.05 498.21"/>
      <polygon class="cls-48" points="-1151.17 486.84 -1129.86 486.35 -1129.6 497.33 -1150.8 497.56 -1151.17 486.84"/>
      <polygon class="cls-34" points="-1649.22 474.64 -1656.83 453.13 -1648.43 445.05 -1640.03 465.45 -1649.22 474.64"/>
      <g>
        <path class="cls-60" d="M-608.14,294.96v-68.15l75.95-75.95h22.38l48.48,48.48v72.89l-48.48,48.14h-72.89l47.13-47.13h24.41v-75.27l-96.97,96.96Z"/>
        <path class="cls-60" d="M-417.84,235v95.75l-38.41-38.41v-149.94h38.41v92.6ZM-324.72,236.05v56.29l-37.62,37.62h-16.31l-36.56-36.56h51.82v-58.4h-54.45l36.56-36.56h18.94l37.62,37.62Z"/>
      </g>
      <polygon class="cls-97" points="-461.32 249.9 -510.99 249.9 -511.14 197.96 -461.4 199.34 -461.32 249.9"/>
      <polygon class="cls-110" points="-520.96 320.08 -520.67 273.32 -511.14 273.21 -509.8 320.28 -520.96 320.08"/>
      <polygon class="cls-50" points="-417.92 297.85 -445.74 303.03 -456.22 292.2 -417.86 292.9 -417.92 297.85"/>
      <polygon class="cls-57" points="-379.19 330.18 -381.34 293.24 -363.49 293.36 -362.22 329.76 -379.19 330.18"/>
      <polygon class="cls-21" points="-324.86 259.18 -363.41 256.26 -363.26 235.07 -325.01 236.45 -324.86 259.18"/>
      <polygon class="cls-93" points="-363.67 270.23 -325.06 272.32 -324.84 292.38 -363.43 293.47 -363.67 270.23"/>
      <polygon class="cls-58" points="-533.56 219.46 -551.27 169.42 -531.74 150.64 -512.18 198.08 -533.56 219.46"/>
      <text class="cls-115" transform="translate(-666.22 413.57) scale(.58)"><tspan x="0" y="0">Senbazuru</tspan></text>
      <polygon class="cls-17" points="-628.37 396.2 -640.61 396.2 -640.64 383.4 -628.38 383.74 -628.37 396.2"/>
      <polygon class="cls-62" points="-609.53 396.3 -621.77 396.3 -621.72 383.83 -609.46 383.43 -609.53 396.3"/>
      <polygon class="cls-35" points="-580.62 395.78 -592.86 395.78 -592.81 383.38 -580.61 383.77 -580.62 395.78"/>
      <polygon class="cls-59" points="-561.69 395.2 -573.93 395.2 -573.88 382.79 -561.68 383.18 -561.69 395.2"/>
      <polygon class="cls-83" points="-643.06 413.5 -642.99 401.97 -640.64 401.94 -640.31 413.55 -643.06 413.5"/>
      <polygon class="cls-107" points="-607.44 401.99 -607.46 413.51 -609.81 413.55 -609.52 401.97 -607.44 401.99"/>
      <polygon class="cls-2" points="-550.76 383.28 -550.76 371.76 -548.41 371.72 -548.68 383.3 -550.76 383.28"/>
      <polygon class="cls-19" points="-517.59 403.37 -526.43 405.02 -529.76 401.58 -517.57 401.8 -517.59 403.37"/>
      <polygon class="cls-15" points="-463.92 383.39 -457.37 371.79 -451.4 371.83 -451.88 383.39 -463.92 383.39"/>
      <polygon class="cls-23" points="-469.74 413.36 -469.8 401.94 -463.83 401.98 -464.31 413.55 -469.74 413.36"/>
      <polygon class="cls-4" points="-427.29 383.12 -426.37 376.51 -421.56 371.88 -421.82 383.06 -427.29 383.12"/>
      <polygon class="cls-3" points="-399.38 387.65 -416.09 388.31 -410.87 383.04 -393.73 381.94 -399.38 387.65"/>
      <polygon class="cls-22" points="-373.45 402.12 -379.02 408.17 -385.75 401.82 -373.36 401.92 -373.45 402.12"/>
      <polygon class="cls-43" points="-505.29 413.64 -505.97 401.91 -500.3 401.94 -499.89 413.51 -505.29 413.64"/>
      <polygon class="cls-85" points="-488.02 391.09 -500.27 390.16 -500.22 383.43 -488.07 383.87 -488.02 391.09"/>
      <polygon class="cls-101" points="-469.14 390.55 -481.39 389.62 -481.28 383.76 -469.08 383.34 -469.14 390.55"/>
      <polygon class="cls-61" points="-439.42 408.78 -446.74 406.9 -451.72 401.97 -439.5 402.21 -439.42 408.78"/>
      <polygon class="cls-104" points="-409.17 402.24 -415.03 413.66 -421.85 413.53 -413.93 402.38 -409.17 402.24"/>
      <polygon class="cls-16" points="-500.35 394.6 -488.09 395.26 -488.02 401.63 -500.28 401.98 -500.35 394.6"/>
      <polygon class="cls-14" points="-481.32 394.23 -469.06 394.9 -469.12 401.92 -481.25 401.62 -481.32 394.23"/>
      <polygon class="cls-53" points="-593.59 401.19 -595.15 392.91 -592.81 392.67 -591.35 403.53 -593.59 401.19"/>
      <polygon class="cls-24" points="-348.25 389.84 -360.47 389.84 -360.47 383.55 -348.32 383.69 -348.25 389.84"/>
      <polyline class="cls-45" points="-272.23 389.65 -284.45 389.65 -284.45 383.35 -272.3 383.5"/>
      <polygon class="cls-33" points="-329.32 383.21 -341.54 383.21 -341.54 376.91 -329.39 377.06 -329.32 383.21"/>
      <polygon class="cls-11" points="-297.7 385.11 -309.92 385.11 -309.92 378.82 -297.77 378.96 -297.7 385.11"/>
      <polygon class="cls-80" points="-329.37 406.81 -336.93 406.26 -341.54 401.58 -329.32 401.62 -329.37 406.81"/>
      <polyline class="cls-105" points="-272.37 406.81 -279.94 406.26 -284.55 401.58 -272.33 401.62"/>
      <polygon class="cls-55" points="-297.48 402.21 -305.09 406.15 -309.8 401.54 -297.58 401.91 -297.48 402.21"/>
      <polygon class="cls-81" points="-360.62 395.69 -348.4 395.41 -348.25 401.71 -360.4 401.84 -360.62 395.69"/>
      <polygon class="cls-8" points="-646.17 388.7 -650.53 376.36 -645.72 371.73 -640.9 383.43 -646.17 388.7"/>
      <g>
        <path class="cls-60" d="M262.02,276.58v-33.47l37.31-37.31h10.99l23.82,23.82v35.81l-23.82,23.65h-35.81l23.15-23.15h11.99v-36.97l-47.63,47.63Z"/>
        <path class="cls-60" d="M355.5,247.12v47.04l-18.87-18.87v-73.65h18.87v45.48ZM401.25,247.64v27.65l-18.48,18.48h-8.01l-17.96-17.96h25.46v-28.69h-26.75l17.96-17.96h9.3l18.48,18.48Z"/>
      </g>
      <polygon class="cls-89" points="334.14 254.44 309.75 254.44 309.68 228.93 334.11 229.61 334.14 254.44"/>
      <polygon class="cls-87" points="304.85 288.91 304.99 265.94 309.68 265.89 310.33 289.01 304.85 288.91"/>
      <polygon class="cls-91" points="355.47 278 341.8 280.54 336.65 275.22 355.49 275.56 355.47 278"/>
      <polygon class="cls-77" points="374.49 293.88 373.43 275.73 382.2 275.79 382.83 293.67 374.49 293.88"/>
      <polygon class="cls-64" points="401.18 259 382.24 257.57 382.32 247.16 401.1 247.83 401.18 259"/>
      <polygon class="cls-72" points="382.12 264.43 401.08 265.46 401.19 275.31 382.23 275.85 382.12 264.43"/>
      <polygon class="cls-29" points="298.66 239.49 289.96 214.91 299.56 205.68 309.16 228.99 298.66 239.49"/>
      <text class="cls-116" transform="translate(233.49 334.84) scale(.58)"><tspan x="0" y="0">Senbazuru</tspan></text>
      <polygon class="cls-38" points="252.09 326.31 246.08 326.31 246.06 320.02 252.08 320.19 252.09 326.31"/>
      <polygon class="cls-42" points="261.34 326.36 255.33 326.36 255.35 320.23 261.38 320.03 261.34 326.36"/>
      <polygon class="cls-63" points="275.55 326.1 269.53 326.1 269.56 320.01 275.55 320.2 275.55 326.1"/>
      <polygon class="cls-75" points="284.85 325.82 278.83 325.82 278.86 319.72 284.85 319.91 284.85 325.82"/>
      <polygon class="cls-98" points="244.87 334.8 244.91 329.14 246.06 329.13 246.22 334.83 244.87 334.8"/>
      <polygon class="cls-9" points="262.37 329.15 262.36 334.81 261.21 334.83 261.35 329.14 262.37 329.15"/>
      <polygon class="cls-111" points="290.21 319.96 290.21 314.3 291.37 314.28 291.23 319.97 290.21 319.96"/>
      <polygon class="cls-6" points="306.51 329.83 302.17 330.64 300.53 328.95 306.52 329.06 306.51 329.83"/>
      <polygon class="cls-73" points="332.87 320.02 336.09 314.32 339.02 314.33 338.78 320.02 332.87 320.02"/>
      <polygon class="cls-76" points="330.01 334.74 329.98 329.13 332.91 329.15 332.68 334.83 330.01 334.74"/>
      <polygon class="cls-41" points="350.87 319.88 351.31 316.64 353.68 314.36 353.55 319.85 350.87 319.88"/>
      <polygon class="cls-96" points="364.57 322.11 356.37 322.43 358.93 319.84 367.35 319.31 364.57 322.11"/>
      <polygon class="cls-84" points="377.31 329.21 374.58 332.19 371.27 329.07 377.36 329.12 377.31 329.21"/>
      <polygon class="cls-102" points="312.55 334.88 312.21 329.11 315 329.13 315.2 334.81 312.55 334.88"/>
      <polygon class="cls-36" points="321.03 323.8 315.01 323.34 315.04 320.03 321.01 320.25 321.03 323.8"/>
      <polygon class="cls-90" points="330.31 323.53 324.29 323.08 324.34 320.2 330.34 319.99 330.31 323.53"/>
      <polygon class="cls-56" points="344.9 332.49 341.31 331.56 338.86 329.14 344.87 329.26 344.9 332.49"/>
      <polygon class="cls-86" points="359.76 329.27 356.89 334.88 353.54 334.82 357.43 329.35 359.76 329.27"/>
      <polygon class="cls-7" points="314.97 325.52 321 325.85 321.03 328.98 315.01 329.15 314.97 325.52"/>
      <polygon class="cls-28" points="324.32 325.34 330.35 325.67 330.32 329.12 324.36 328.97 324.32 325.34"/>
      <polygon class="cls-1" points="269.17 328.76 268.41 324.69 269.55 324.57 270.27 329.91 269.17 328.76"/>
      <polygon class="cls-46" points="389.69 323.19 383.68 323.19 383.68 320.09 389.65 320.17 389.69 323.19"/>
      <polyline class="cls-54" points="427.03 323.09 421.03 323.09 421.03 320 427 320.07"/>
      <polygon class="cls-37" points="398.99 319.93 392.98 319.93 392.98 316.83 398.95 316.91 398.99 319.93"/>
      <polygon class="cls-51" points="414.52 320.86 408.52 320.86 408.52 317.77 414.49 317.84 414.52 320.86"/>
      <polygon class="cls-47" points="398.97 331.52 395.25 331.25 392.98 328.95 398.99 328.97 398.97 331.52"/>
      <polyline class="cls-99" points="426.96 331.52 423.25 331.25 420.98 328.95 426.99 328.97"/>
      <polygon class="cls-32" points="414.63 329.26 410.89 331.2 408.58 328.93 414.58 329.11 414.63 329.26"/>
      <polygon class="cls-109" points="383.61 326.06 389.62 325.92 389.69 329.01 383.72 329.08 383.61 326.06"/>
      <polygon class="cls-65" points="243.35 322.62 241.2 316.56 243.57 314.29 245.93 320.03 243.35 322.62"/>
    </g>
  </g>
</svg>